<svg width="64" height="64" viewBox="0 0 64 64" fill="none" xmlns="http://www.w3.org/2000/svg">
<g clip-path="url(#clip0_30_222)">
<path d="M32 64C14.3547 64 0 49.6453 0 32C0 14.3547 14.3547 0 32 0C49.6453 0 64 14.3547 64 32C64 49.6453 49.6453 64 32 64ZM32 2.66667C15.8267 2.66667 2.66667 15.8267 2.66667 32C2.66667 48.1733 15.8267 61.3333 32 61.3333C48.1733 61.3333 61.3333 48.1733 61.3333 32C61.3333 15.8267 48.1733 2.66667 32 2.66667Z" fill="#C9DF8A"/>
<path d="M25.3333 48C25.1627 48 24.9867 47.968 24.824 47.8987C24.3253 47.6933 24 47.2053 24 46.6667V38.6667C24 38.312 24.1413 37.9733 24.3893 37.7227L30.6827 31.4293L20.6587 37.1547C20.2293 37.4 19.7013 37.3867 19.28 37.12L11.28 32.0187C10.856 31.7493 10.6213 31.264 10.6693 30.7653C10.72 30.2667 11.0453 29.8373 11.5093 29.6533L46.176 16.088C46.632 15.9173 47.136 15.9947 47.5093 16.3013C47.8853 16.608 48.0613 17.0933 47.976 17.5707L42.6427 46.904C42.568 47.3173 42.3013 47.672 41.9253 47.8587C41.5493 48.0453 41.1067 48.0453 40.7333 47.8587L30.9253 42.9547L26.272 47.608C26.0213 47.864 25.68 48 25.3333 48ZM30.6667 40C30.8693 40 31.072 40.0453 31.264 40.1413L40.3387 44.68L44.928 19.4453L14.928 31.184L20.04 34.4427L38.0053 24.176C38.5867 23.848 39.3227 23.9947 39.728 24.5227C40.1333 25.0533 40.0827 25.8027 39.6107 26.2747L26.6667 39.2187V43.448L29.7227 40.392C29.9787 40.1333 30.32 40 30.6667 40Z" fill="black"/>
</g>
<defs>
<clipPath id="clip0_30_222">
<rect width="64" height="64" fill="white"/>
</clipPath>
</defs>
</svg>
