<svg width="64" height="64" viewBox="0 0 64 64" fill="none" xmlns="http://www.w3.org/2000/svg">
<path d="M40.1768 32.8915C42.4782 31.7661 44.5 30.142 46.0952 28.1374C47.6904 26.1328 48.8189 23.798 49.3987 21.3026C49.4706 20.9033 49.3816 20.4918 49.1513 20.1578C48.9209 19.8238 48.5679 19.5944 48.1691 19.5197C47.971 19.4799 47.7669 19.4803 47.569 19.5209C47.371 19.5616 47.1833 19.6417 47.0169 19.7564C46.8506 19.8711 46.709 20.0182 46.6006 20.1887C46.4923 20.3593 46.4194 20.55 46.3862 20.7493C45.682 23.7786 43.9687 26.4784 41.5277 28.4055C39.0867 30.3326 36.063 31.3725 32.953 31.3545V21.026C32.953 20.6183 32.791 20.2274 32.5028 19.9391C32.2146 19.6509 31.8236 19.489 31.416 19.489C31.0084 19.489 30.6174 19.6509 30.3292 19.9391C30.0409 20.2274 29.879 20.6183 29.879 21.026V42.1748C25.6369 39.439 16.8454 32.3689 16.8454 21.026C16.8454 20.6183 16.6835 20.2274 16.3952 19.9391C16.107 19.6509 15.716 19.489 15.3084 19.489C14.9008 19.489 14.5098 19.6509 14.2216 19.9391C13.9334 20.2274 13.7714 20.6183 13.7714 21.026C13.7714 37.7791 30.0327 45.9251 30.7397 46.2632C30.9518 46.3615 31.1823 46.4139 31.416 46.4169C31.8188 46.4017 32.2009 46.2349 32.4859 45.9499C32.7709 45.6649 32.9378 45.2827 32.953 44.8799V34.5514C36.2114 34.7973 46.3555 36.3036 46.3555 44.8799C46.3555 45.2876 46.5174 45.6785 46.8056 45.9667C47.0939 46.255 47.4848 46.4169 47.8925 46.4169C48.2976 46.409 48.684 46.2446 48.9706 45.958C49.2571 45.6715 49.4216 45.2851 49.4294 44.8799C49.3994 42.1476 48.4801 39.4995 46.8106 37.3363C45.1411 35.1732 42.8123 33.6128 40.1768 32.8915Z" fill="black"/>
<path d="M32.0307 1.47713e-05C25.7004 -0.00606622 19.5105 1.86553 14.2441 5.37804C8.97772 8.89054 4.87142 13.8861 2.4447 19.7328C0.0179831 25.5795 -0.620111 32.0146 0.611142 38.224C1.84239 44.4334 4.88767 50.1382 9.36172 54.6165C13.8358 59.0949 19.5376 62.1456 25.7458 63.3829C31.954 64.6201 38.3897 63.9882 44.2388 61.5671C50.0878 59.146 55.0873 55.0445 58.6049 49.7814C62.1225 44.5184 64 38.3303 64 32C63.9919 23.5209 60.6221 15.3909 54.6293 9.39243C48.6366 3.39391 40.5098 0.0162856 32.0307 1.47713e-05ZM32.0307 60.926C26.3084 60.9321 20.7128 59.2408 15.9519 56.0661C11.191 52.8913 7.47873 48.3758 5.28468 43.0908C3.09062 37.8058 2.5134 31.9888 3.62604 26.3757C4.73869 20.7626 7.4912 15.6056 11.5353 11.5571C15.5795 7.50866 20.7336 4.75067 26.3455 3.63206C31.9574 2.51345 37.7751 3.08448 43.0624 5.27292C48.3497 7.46135 52.8692 11.1689 56.049 15.9264C59.2288 20.6839 60.926 26.2777 60.926 32C60.9179 39.6638 57.872 47.0119 52.4557 52.434C47.0394 57.856 39.6946 60.9098 32.0307 60.926Z" fill="#C9DF8A"/>
</svg>
